<svg width="24" height="24" viewBox="0 0 24 24" fill="none" xmlns="http://www.w3.org/2000/svg">
<path fill-rule="evenodd" clip-rule="evenodd" d="M10.724 23.9999C9.617 23.9999 8.324 23.9939 7.048 23.9209C5.18106 23.9629 3.3729 23.2669 2.016 21.9839C0.732801 20.6275 0.0367146 18.8196 0.079 16.9529C0 15.5099 0 14.0509 0 12.6399V11.9999V11.3599C0 9.94888 0 8.48988 0.079 7.04788C0.0369932 5.18094 0.733022 3.37278 2.016 2.01588C3.3729 0.7329 5.18106 0.0368711 7.048 0.0788779C8.328 0.00587797 9.617 -0.00012207 10.724 -0.00012207H13.277C14.384 -0.00012207 15.677 0.00587797 16.954 0.0788779C18.8207 0.0365925 20.6286 0.732679 21.985 2.01588C23.268 3.37278 23.964 5.18094 23.922 7.04788C24 8.48988 24 9.94888 24 11.3609V12.0009V12.6399C24 14.0509 24 15.5099 23.921 16.9539C23.9633 18.8206 23.2672 20.6285 21.984 21.9849C20.6276 23.2681 18.8197 23.9642 16.953 23.9219C15.672 23.9949 14.383 24.0009 13.276 24.0009L10.724 23.9999ZM17.6061 6.7885C17.8425 6.94651 18.1206 7.03085 18.405 7.03085L18.406 7.03185C18.7873 7.03132 19.1528 6.87948 19.4222 6.60967C19.6916 6.33986 19.843 5.97415 19.843 5.59285C19.843 5.30844 19.7586 5.03042 19.6006 4.79394C19.4426 4.55746 19.218 4.37315 18.9553 4.26431C18.6925 4.15547 18.4034 4.12699 18.1244 4.18248C17.8455 4.23796 17.5893 4.37492 17.3882 4.57603C17.1871 4.77714 17.0501 5.03336 16.9946 5.31231C16.9391 5.59125 16.9676 5.88039 17.0764 6.14315C17.1853 6.40591 17.3696 6.63049 17.6061 6.7885ZM8.58047 17.1176C9.59269 17.7941 10.7828 18.1553 12.0003 18.1555C13.6327 18.154 15.1979 17.5058 16.3522 16.3514C17.5065 15.1971 18.1557 13.632 18.1573 11.9995C18.1573 10.782 17.7963 9.59188 17.1199 8.57955C16.4435 7.56723 15.4821 6.7782 14.3573 6.31223C13.2325 5.84627 11.9948 5.7243 10.8007 5.96175C9.60656 6.1992 8.50966 6.78541 7.64869 7.64624C6.78772 8.50707 6.20134 9.60387 5.96369 10.798C5.72605 11.992 5.84782 13.2298 6.3136 14.3546C6.77938 15.4795 7.56825 16.441 8.58047 17.1176ZM9.77795 8.67418C10.4357 8.23466 11.2091 8.00006 12.0002 8.00006C13.0611 8.00006 14.0785 8.42149 14.8287 9.17163C15.5788 9.92178 16.0002 10.9392 16.0002 12.0001C16.0002 12.7912 15.7656 13.5645 15.3261 14.2223C14.8866 14.8801 14.2619 15.3928 13.531 15.6956C12.8001 15.9983 11.9958 16.0775 11.2199 15.9232C10.4439 15.7689 9.73121 15.3879 9.1718 14.8285C8.61239 14.2691 8.23143 13.5563 8.07709 12.7804C7.92275 12.0045 8.00196 11.2002 8.30471 10.4693C8.60746 9.73842 9.12015 9.11371 9.77795 8.67418Z" fill="white"/>
</svg>
